<!--version="1.0" encoding="UTF-8" standalone="no"--><svg version="1.1" width="1200" height="600" id="svg10" sodipodi:docname="Flag_of_the_Soviet_Union.svg" inkscape:version="1.1 (c68e22c387, 2021-05-23)" xmlns:inkscape="http://www.inkscape.org/namespaces/inkscape" xmlns:sodipodi="http://sodipodi.sourceforge.net/DTD/sodipodi-0.dtd" xmlns="http://www.w3.org/2000/svg"><sodipodi:namedview id="namedview10" pagecolor="#ffffff" bordercolor="#666666" borderopacity="1.0" inkscape:pageshadow="2" inkscape:pageopacity="0.0" inkscape:pagecheckerboard="0" showgrid="false" inkscape:snap-page="true" showguides="false" inkscape:guide-bbox="true" inkscape:snap-bbox="true" inkscape:bbox-paths="false" inkscape:snap-bbox-midpoints="true" inkscape:zoom="0.65996633" inkscape:cx="479.56992" inkscape:cy="242.43661" inkscape:window-width="1440" inkscape:window-height="837" inkscape:window-x="-8" inkscape:window-y="-8" inkscape:window-maximized="1" inkscape:current-layer="svg10"><sodipodi:guide position="200.00002,219.67757" orientation="1,0" id="guide1168"/><sodipodi:guide position="765,450.00002" orientation="0,-1" id="guide1176"/></sodipodi:namedview><path fill="#bc0000" fill-opacity="1" d="M0 0h1200v600H0z" id="path2" style="fill: rgb(204, 0, 0); fill-opacity: 1;" inkscape:export-filename="C:\Users\nucle\Desktop\path2j.png" inkscape:export-xdpi="96.023102" inkscape:export-ydpi="96.023102"/><g style="fill: rgb(255, 215, 0); fill-opacity: 1;" id="g2900" transform="matrix(0.98931879,0,0,0.98673811,3.8297497,-33.73408)"><path id="rect4165-6" d="m137.437 171.694 18.863 18.994 17.789-17.666c27.057 29.02 55.437 56.995 82.286 86.128 4.034 4.062 10.598 4.085 14.66.05 4.063-4.034 4.085-10.598.05-14.66-28.818-27.19-57.725-54.602-86.552-81.891l23.965-23.801-33.342-4.617z" style="fill: rgb(255, 215, 0); fill-opacity: 1; stroke: none; stroke-width: 0.489191; stroke-miterlimit: 4; stroke-dasharray: none; stroke-dashoffset: 0; stroke-opacity: 1;"/><path id="path4179-3" d="M198.289 110.196c15.516 8.739 27.297 21.28 34.247 34.392 7.044 13.289 10.14 27.162 10.203 38.254.13 22.744-18.437 41.182-41.181 41.182-12.137 0-23.048-5.249-30.585-13.6l-4.168 3.51a6.224 6.224 0 0 0-6.973 1.789 7.815 7.815 0 0 0-6.405 5.292c-3.136 6.289-8.637 11.22-15.292 13.478a1.33 1.33 0 0 0-.176.078c-3.078 1.128-6.163 3.165-8.79 5.803-5.19 5.236-7.728 11.936-6.3 16.638a3.93 3.93 0 0 0-.215 1.27 3.93 3.93 0 0 0 3.931 3.931 3.933 3.933 0 0 0 1.578-.335c4.693 1.059 11.068-1.546 16.054-6.56 2.826-2.85 4.944-6.223 5.983-9.53 2.317-6.622 7.297-12.018 13.623-15.053.15-.072.273-.147.382-.223a7.815 7.815 0 0 0 4.225-5.215c9.702 11.445 24.253 18.753 40.519 19.135 29.833.703 52.133-21.258 53.164-52.836.519-15.892-5.63-36.385-19.641-53.19-10.709-12.845-26.41-23.509-44.187-28.209z" style="fill: rgb(255, 215, 0); fill-opacity: 1; stroke: none; stroke-width: 0.500035; stroke-miterlimit: 4; stroke-dasharray: none; stroke-dashoffset: 0; stroke-opacity: 1;"/></g></svg>